<?xml version="1.0" standalone="no"?>
<!DOCTYPE svg PUBLIC "-//W3C//DTD SVG 20010904//EN"
 "http://www.w3.org/TR/2001/REC-SVG-20010904/DTD/svg10.dtd">
<svg version="1.0" xmlns="http://www.w3.org/2000/svg"
 width="100.000000pt" height="100.000000pt" viewBox="0 0 100.000000 100.000000"
 preserveAspectRatio="xMidYMid meet">
<metadata>
Created by potrace 1.13, written by Peter Selinger 2001-2015
</metadata>
<g transform="translate(0.000000,100.000000) scale(0.100000,-0.100000)"
fill="#3B5998" stroke="none">
<path d="M17 982 c-15 -17 -17 -65 -17 -484 0 -438 1 -466 18 -481 16 -15 50
-17 270 -17 l252 0 0 195 0 195 -70 0 -70 0 0 70 0 70 70 0 70 0 0 90 c0 178
58 240 225 240 l85 0 0 -74 0 -74 -70 -4 c-38 -2 -75 -9 -82 -16 -7 -7 -14
-46 -16 -87 l-4 -75 82 0 82 0 -7 -47 c-14 -98 -9 -93 -86 -93 l-69 0 0 -195
0 -195 143 0 c127 0 146 2 160 18 15 17 17 65 17 484 0 438 -1 466 -18 481
-17 15 -65 17 -484 17 -438 0 -466 -1 -481 -18z"/>
</g>
</svg>
