<svg style="position:absolute" width="0" height="0"><symbol viewBox="0 0 23.5 22.6" id="academia" xmlns="http://www.w3.org/2000/svg"><path d="M6.7 22.6v-1.2c-1.8-.2-2.9-.4-2.1-2.4.1-.2.6-1.5 1.3-3.3h8.2l1.2 3c.2.5.3.9.3 1.2 0 1-.9 1.4-2.6 1.4v1.2h10.5v-1.2c-.9-.2-1.6-.4-1.9-1.2L13.5 0H7.7l1 2.5-6.8 17.7c-.3.9-1 1-1.9 1.2v1.2h6.7zM9.9 5.2l3.3 8.3H6.7c1.2-3.2 2.7-6.9 3.2-8.3z"/></symbol><symbol viewBox="0 0 120 42" id="cc-by-nc" xmlns="http://www.w3.org/2000/svg"><path d="M3.408.44l113.354.2c1.584 0 3-.234 3 3.16l-.14 37.33H.547V3.663C.547 1.988.71.44 3.407.44z" fill="#aab2ab"/><path d="M34.522 19.538c.005 7.53-6.096 13.637-13.626 13.642-7.53.004-13.64-6.096-13.644-13.625v-.017C7.248 12.008 13.35 5.901 20.88 5.896c7.531-.004 13.639 6.096 13.643 13.626v.016z" fill="#fff"/><path d="M31.971 8.433c3.024 3.024 4.536 6.726 4.536 11.105 0 4.38-1.486 8.043-4.458 10.988-3.153 3.102-6.88 4.653-11.181 4.653-4.249 0-7.912-1.538-10.987-4.614-3.076-3.075-4.614-6.751-4.614-11.027 0-4.275 1.538-7.977 4.614-11.105 2.997-3.024 6.66-4.536 10.987-4.536 4.38 0 8.08 1.512 11.103 4.536zm-20.054 2.034c-2.557 2.582-3.834 5.606-3.834 9.075 0 3.468 1.265 6.467 3.794 8.996 2.53 2.53 5.542 3.794 9.037 3.794 3.495 0 6.532-1.277 9.114-3.833 2.452-2.373 3.678-5.358 3.678-8.957 0-3.572-1.246-6.604-3.737-9.094-2.49-2.49-5.508-3.736-9.055-3.736-3.547 0-6.546 1.252-8.997 3.755zm6.727 7.55c-.391-.853-.976-1.278-1.756-1.278-1.378 0-2.067.928-2.067 2.783 0 1.856.689 2.784 2.067 2.784.91 0 1.561-.452 1.951-1.357l1.911 1.017c-.91 1.618-2.277 2.428-4.1 2.428-1.405 0-2.53-.431-3.376-1.293-.846-.861-1.269-2.05-1.269-3.563 0-1.488.436-2.669 1.308-3.543.872-.875 1.958-1.312 3.26-1.312 1.926 0 3.305.758 4.139 2.274l-2.068 1.06zm8.99 0c-.391-.853-.965-1.278-1.72-1.278-1.406 0-2.11.928-2.11 2.783 0 1.856.704 2.784 2.11 2.784.912 0 1.55-.452 1.915-1.357l1.953 1.017c-.909 1.618-2.274 2.428-4.092 2.428-1.404 0-2.527-.431-3.372-1.293-.843-.861-1.266-2.05-1.266-3.563 0-1.488.43-2.669 1.287-3.543.857-.875 1.947-1.312 3.273-1.312 1.923 0 3.3.758 4.13 2.274l-2.108 1.06z"/><path d="M117.753 0H2.247A2.25 2.25 0 0 0 0 2.246v39.247c0 .28.228.507.508.507h118.984c.28 0 .508-.227.508-.507V2.246A2.249 2.249 0 0 0 117.753 0zM2.247 1.014h115.506c.68 0 1.232.553 1.232 1.232v27.209H36.428c-3.026 5.47-8.856 9.185-15.546 9.185-6.694 0-12.522-3.711-15.547-9.185h-4.32V2.246c0-.68.553-1.232 1.232-1.232z"/><g fill="#fff"><path d="M59.997 32.747c.315 0 .603.028.863.084.26.055.484.146.67.273.185.126.33.295.432.505.102.21.153.47.153.78 0 .333-.076.61-.228.833-.151.223-.376.404-.673.547.41.117.715.323.917.617.202.294.302.648.302 1.063 0 .334-.065.623-.195.867s-.305.444-.525.598c-.22.155-.471.27-.753.344a3.381 3.381 0 0 1-.87.111h-3.215v-6.622h3.122zm-.186 2.679c.26 0 .473-.063.64-.186.168-.123.251-.323.251-.6a.768.768 0 0 0-.083-.38.625.625 0 0 0-.224-.232.938.938 0 0 0-.32-.115 2.157 2.157 0 0 0-.376-.032h-1.365v1.545h1.477zm.085 2.81c.142 0 .278-.014.409-.042.13-.028.245-.075.344-.139a.704.704 0 0 0 .237-.265.901.901 0 0 0 .088-.426c0-.34-.096-.582-.288-.727-.193-.145-.446-.218-.762-.218h-1.59v1.817h1.562zM62.69 32.747h1.634l1.55 2.615 1.542-2.615h1.624l-2.459 4.08v2.542h-1.46v-2.578l-2.43-4.044z"/></g><g fill="#fff"><path d="M86.434 32.747L89.2 37.19h.015v-4.443h1.367v6.622h-1.457l-2.756-4.434h-.019v4.434h-1.366v-6.622h1.449zM96.111 34.511a1.492 1.492 0 0 0-.766-.612 1.504 1.504 0 0 0-.514-.088c-.328 0-.606.063-.835.19a1.56 1.56 0 0 0-.556.51 2.232 2.232 0 0 0-.312.727 3.613 3.613 0 0 0 0 1.655c.065.263.169.5.312.71.141.21.327.378.556.505.229.127.507.19.835.19.445 0 .793-.136 1.044-.409.25-.271.403-.63.459-1.076h1.41a3.37 3.37 0 0 1-.288 1.123 2.596 2.596 0 0 1-1.503 1.394c-.34.125-.714.187-1.122.187-.507 0-.963-.089-1.369-.265a2.94 2.94 0 0 1-1.026-.728 3.216 3.216 0 0 1-.641-1.09 4.005 4.005 0 0 1-.224-1.352c0-.494.075-.953.224-1.377.148-.425.362-.794.641-1.11a2.938 2.938 0 0 1 1.026-.742c.406-.18.862-.269 1.37-.269.364 0 .709.053 1.034.158.324.105.615.259.871.46.258.201.47.45.636.748.167.296.272.637.315 1.02h-1.41a1.182 1.182 0 0 0-.167-.459z"/></g><path d="M101.718 14.98c.004 5.501-4.452 9.963-9.953 9.967-5.501.004-9.963-4.452-9.967-9.952v-.014c-.004-5.502 4.451-9.963 9.952-9.967 5.502-.004 9.964 4.452 9.968 9.952v.015z" fill="#fff"/><path d="M91.743 3.385c3.25 0 5.999 1.121 8.244 3.362 2.244 2.242 3.367 4.987 3.367 8.234 0 3.246-1.103 5.961-3.31 8.146-2.341 2.3-5.108 3.448-8.3 3.448-3.156 0-5.874-1.14-8.158-3.42-2.283-2.28-3.425-5.005-3.425-8.174 0-3.17 1.142-5.915 3.425-8.234 2.226-2.241 4.945-3.362 8.157-3.362zm-8.973 8.48a9.29 9.29 0 0 0-.518 3.116c0 2.57.937 4.791 2.814 6.667 1.877 1.874 4.112 2.811 6.706 2.811 2.593 0 4.847-.946 6.763-2.84a8.919 8.919 0 0 0 1.585-2.029l-4.373-1.946c-.296 1.47-1.606 2.464-3.19 2.58v1.788h-1.332v-1.788c-1.301-.014-2.56-.547-3.52-1.388l1.596-1.61c.77.724 1.54 1.049 2.59 1.049.68 0 1.434-.267 1.434-1.153a.866.866 0 0 0-.313-.696l-1.106-.493-1.377-.613c-.68-.304-1.257-.56-1.836-.817l-5.923-2.638zm9.002-6.393c-2.632 0-4.857.927-6.676 2.783-.496.5-.926 1.022-1.292 1.566l4.434 1.974c.4-1.23 1.568-1.976 2.987-2.058V7.949h1.331v1.788c.918.044 1.923.295 2.914 1.063l-1.524 1.566c-.562-.399-1.271-.68-1.982-.68-.576 0-1.39.177-1.39.9 0 .112.037.209.105.295l1.482.66 1.004.447c.641.287 1.255.559 1.862.83l5.942 2.644a10.08 10.08 0 0 0 .295-2.481c0-2.65-.93-4.89-2.787-6.726-1.839-1.856-4.074-2.783-6.705-2.783z"/><g transform="matrix(.99378 0 0 .9937 -177.694 -148.877)"><circle cx="242.562" cy="165.136" r="10.806" fill="#fff"/><path d="M245.69 162.01a.754.754 0 0 0-.754-.755h-4.772a.754.754 0 0 0-.754.754v4.773h1.33v5.652h3.618v-5.652h1.332v-4.773z"/><circle cx="242.55" cy="158.995" r="1.632"/><path clip-rule="evenodd" d="M242.535 153.23c-3.232 0-5.969 1.127-8.208 3.383-2.298 2.334-3.446 5.096-3.446 8.285s1.148 5.932 3.446 8.227c2.298 2.294 5.034 3.441 8.208 3.441 3.213 0 5.998-1.156 8.353-3.47 2.22-2.198 3.33-4.93 3.33-8.198 0-3.268-1.129-6.029-3.387-8.285-2.26-2.256-5.025-3.384-8.296-3.384zm.029 2.1c2.648 0 4.897.933 6.747 2.8 1.87 1.848 2.805 4.103 2.805 6.768 0 2.684-.915 4.91-2.746 6.68-1.928 1.906-4.197 2.859-6.806 2.859-2.61 0-4.858-.943-6.747-2.83-1.89-1.886-2.833-4.123-2.833-6.709 0-2.587.954-4.843 2.862-6.768 1.83-1.867 4.07-2.8 6.718-2.8z" fill-rule="evenodd"/></g></symbol><symbol fill="none" stroke="currentColor" stroke-width="2" stroke-linecap="round" stroke-linejoin="round" class="cfeather cfeather-chevron-right" viewBox="0 0 24 24" id="chevron-right" xmlns="http://www.w3.org/2000/svg"><path d="M9 18l6-6-6-6"/></symbol><symbol fill="none" stroke="#0F6BD9" stroke-width="2" stroke-linecap="round" stroke-linejoin="round" class="dfeather dfeather-chevron-right" viewBox="0 0 24 24" id="chevron-right-blue" xmlns="http://www.w3.org/2000/svg"><path d="M9 18l6-6-6-6"/></symbol><symbol fill="none" stroke="currentColor" stroke-width="2" stroke-linecap="round" stroke-linejoin="round" class="efeather efeather-mail" viewBox="0 0 24 24" id="email" xmlns="http://www.w3.org/2000/svg"><path d="M4 4h16c1.1 0 2 .9 2 2v12c0 1.1-.9 2-2 2H4c-1.1 0-2-.9-2-2V6c0-1.1.9-2 2-2z"/><path d="M22 6l-10 7L2 6"/></symbol><symbol fill="none" stroke="currentColor" stroke-width="2" stroke-linecap="round" stroke-linejoin="round" class="ffeather ffeather-external-link" viewBox="0 0 24 24" id="external-link" xmlns="http://www.w3.org/2000/svg"><path d="M18 13v6a2 2 0 0 1-2 2H5a2 2 0 0 1-2-2V8a2 2 0 0 1 2-2h6M15 3h6v6M10 14L21 3"/></symbol><symbol viewBox="0 0 300 300.002" id="facebook" xmlns="http://www.w3.org/2000/svg"><defs><clipPath id="ga"><path d="M0 500h1024V0H0v500z"/></clipPath></defs><g clip-path="url(#ga)" transform="matrix(1.11655 0 0 -1.11655 -136.954 433.606)"><path d="M375.716 120.553c8.134 0 14.73 6.596 14.73 14.73v237.434c0 8.137-6.596 14.73-14.73 14.73H138.283c-8.137 0-14.73-6.593-14.73-14.73V135.283c0-8.134 6.593-14.73 14.73-14.73h237.433z" fill="#3b5998"/><path d="M307.705 120.553v103.355h34.693l5.194 40.28h-39.887v25.717c0 11.662 3.238 19.609 19.962 19.609l21.33.01v36.026c-3.69.49-16.351 1.587-31.081 1.587-30.753 0-51.806-18.771-51.806-53.244v-29.705h-34.781v-40.28h34.78V120.553h41.596z" fill="#fff"/></g></symbol><symbol viewBox="0 0 85 87" id="ghost" xmlns="http://www.w3.org/2000/svg"><g fill="#738a94" fill-rule="evenodd" opacity=".6"><rect x=".209" y="69.017" width="33.643" height="17.014" rx="4"/><rect x="50.672" y="69.017" width="33.622" height="17.014" rx="4"/><rect x=".184" y="34.99" width="84.121" height="17.014" rx="4"/><rect x=".209" y=".964" width="50.469" height="17.013" rx="4"/><rect x="67.494" y=".964" width="16.821" height="17.013" rx="4"/></g></symbol><symbol viewBox="0 0 32 32" id="goodreads" xmlns="http://www.w3.org/2000/svg"><path d="M16 31.625C7.385 31.625.375 24.615.375 16 .375 7.384 7.385.375 16 .375S31.625 7.384 31.625 16c0 8.615-7.01 15.625-15.625 15.625z" fill="#FFF"/><path d="M16 .75C24.409.75 31.25 7.591 31.25 16S24.409 31.25 16 31.25.75 24.409.75 16 7.591.75 16 .75M16 0C7.163 0 0 7.163 0 16c0 8.836 7.163 16 16 16s16-7.164 16-16c0-8.837-7.163-16-16-16z" fill="#E5E5E5"/><g><path d="M15.947 19.682c2.127-.016 3.64-1.001 4.537-2.955h.047v2.98c0 .222-.016.566-.047 1.034-.064.484-.235 1.006-.512 1.564-.278.525-.727.973-1.345 1.342-.612.402-1.465.611-2.561.628-1.056 0-1.949-.255-2.679-.764-.747-.501-1.183-1.314-1.31-2.438h-.929c.095 1.461.599 2.504 1.512 3.127.889.599 2.016.899 3.382.899 1.349 0 2.402-.234 3.156-.702.746-.451 1.281-1.014 1.608-1.687.325-.673.52-1.314.583-1.921.048-.607.072-1.042.072-1.305V7.196h-.929v2.709h-.047c-.357-.993-.949-1.744-1.775-2.253a5.26 5.26 0 0 0-2.762-.751c-1.755.033-3.089.661-4.001 1.884-.937 1.215-1.405 2.713-1.405 4.494 0 1.831.444 3.345 1.333 4.543.897 1.224 2.254 1.843 4.072 1.86zM12.589 9.45c.73-1.108 1.849-1.683 3.358-1.724 1.548.041 2.695.599 3.441 1.675s1.119 2.368 1.119 3.879-.373 2.795-1.119 3.854c-.747 1.125-1.893 1.699-3.441 1.724-1.461-.025-2.573-.583-3.335-1.674-.77-1.059-1.155-2.36-1.155-3.903 0-1.447.378-2.723 1.132-3.831z" fill="#333"/></g></symbol><symbol viewBox="0 0 207.28 192" id="linkedin" xmlns="http://www.w3.org/2000/svg"><path d="M177.792 0H14.172C6.353 0 0 6.197 0 13.836v164.312C0 185.793 6.353 192 14.172 192h163.62c7.833 0 14.213-6.207 14.213-13.852V13.836c0-7.639-6.38-13.836-14.213-13.836" fill="#0977b6"/><path d="M42.713 26.435c9.103 0 16.503 7.398 16.503 16.505 0 9.116-7.4 16.515-16.503 16.515-9.128 0-16.515-7.399-16.515-16.515 0-9.107 7.387-16.505 16.515-16.505M28.466 71.98h28.48v91.628h-28.48V71.981M74.808 71.98h27.313v12.522h.382c3.801-7.205 13.091-14.8 26.945-14.8 28.839 0 34.163 18.979 34.163 43.646v50.261h-28.459v-44.56c0-10.625-.196-24.292-14.798-24.292-14.817 0-17.092 11.573-17.092 23.524v45.328H74.808V71.981" fill="#fff"/><path d="M196.683 158.786h1.548v4.824h.841v-4.824h1.544v-.84h-3.933v.84M206.087 157.945l-1.652 4.16-1.652-4.16h-1.198v5.665h.838v-4.31l1.733 4.31h.559l1.732-4.31v4.31h.837v-5.665h-1.197" fill="#231f20"/></symbol><symbol viewBox="0 0 16 16" id="octicon" xmlns="http://www.w3.org/2000/svg"><path fill-rule="evenodd" d="M8 0C3.58 0 0 3.58 0 8c0 3.54 2.29 6.53 5.47 7.59.4.07.55-.17.55-.38 0-.19-.01-.82-.01-1.49-2.01.37-2.53-.49-2.69-.94-.09-.23-.48-.94-.82-1.13-.28-.15-.68-.52-.01-.53.63-.01 1.08.58 1.23.82.72 1.21 1.87.87 2.33.66.07-.52.28-.87.51-1.07-1.78-.2-3.64-.89-3.64-3.95 0-.87.31-1.59.82-2.15-.08-.2-.36-1.02.08-2.12 0 0 .67-.21 2.2.82.64-.18 1.32-.27 2-.27.68 0 1.36.09 2 .27 1.53-1.04 2.2-.82 2.2-.82.44 1.1.16 1.92.08 2.12.51.56.82 1.27.82 2.15 0 3.07-1.87 3.75-3.65 3.95.29.25.54.73.54 1.48 0 1.07-.01 1.93-.01 2.2 0 .21.15.46.55.38A8.013 8.013 0 0 0 16 8c0-4.42-3.58-8-8-8z"/></symbol><symbol id="orcid" viewBox="0 0 256 256" xmlns="http://www.w3.org/2000/svg"><style>.lst0{fill:#a6ce39}.lst1{fill:#fff}</style><path class="lst0" d="M256 128c0 70.7-57.3 128-128 128S0 198.7 0 128 57.3 0 128 0s128 57.3 128 128z"/><path class="lst1" d="M86.3 186.2H70.9V79.1h15.4v107.1zM108.9 79.1h41.6c39.6 0 57 28.3 57 53.6 0 27.5-21.5 53.6-56.8 53.6h-41.8V79.1zm15.4 93.3h24.5c34.9 0 42.9-26.5 42.9-39.7C191.7 111.2 178 93 148 93h-23.7v79.4zM88.7 56.8c0 5.5-4.5 10.1-10.1 10.1s-10.1-4.6-10.1-10.1c0-5.6 4.5-10.1 10.1-10.1s10.1 4.6 10.1 10.1z"/></symbol><symbol viewBox="0 0 61 61" id="skype" xmlns="http://www.w3.org/2000/svg"><path d="M30.32 48.65c-10.09 0-14.7-5.14-14.7-8.91a3.27 3.27 0 0 1 3.45-3.27c4.32 0 3.19 6.48 11.25 6.48 4.12 0 6.54-2.48 6.54-4.81 0-1.4-.8-3-3.52-3.64l-9-2.27c-7.23-1.84-8.49-5.86-8.49-9.59 0-7.74 7.08-10.54 13.82-10.54 6.21 0 13.59 3.43 13.59 8.07 0 2-1.67 3.07-3.61 3.07-3.69 0-3.07-5.18-10.49-5.18-3.69 0-5.63 1.73-5.63 4.15 0 2.42 2.87 3.24 5.39 3.79l6.64 1.5c7.28 1.64 9.22 5.91 9.22 10 0 6.29-4.87 11.15-14.47 11.15m27.87-13.31a28.86 28.86 0 0 0 .43-5A28.42 28.42 0 0 0 25.27 2.23 16.72 16.72 0 0 0 16.89 0 17 17 0 0 0 2.22 25.41a28.44 28.44 0 0 0 32.92 33.1 16.71 16.71 0 0 0 8.37 2.23 17 17 0 0 0 14.67-25.4" fill-rule="nonzero" fill="#0078D7"/></symbol><symbol id="twitter" viewBox="0 0 400 400" xmlns="http://www.w3.org/2000/svg"><defs><style>.ncls-1{fill:none}.ncls-2{fill:#1da1f2}</style></defs><path class="ncls-1" d="M0 0h400v400H0z"/><path class="ncls-2" d="M153.62 301.59c94.34 0 145.94-78.16 145.94-145.94 0-2.22 0-4.43-.15-6.63A104.36 104.36 0 0 0 325 122.47a102.38 102.38 0 0 1-29.46 8.07 51.47 51.47 0 0 0 22.55-28.37 102.79 102.79 0 0 1-32.57 12.45 51.34 51.34 0 0 0-87.41 46.78A145.62 145.62 0 0 1 92.4 107.81a51.33 51.33 0 0 0 15.88 68.47A50.91 50.91 0 0 1 85 169.86v.65a51.31 51.31 0 0 0 41.15 50.28 51.21 51.21 0 0 1-23.16.88 51.35 51.35 0 0 0 47.92 35.62 102.92 102.92 0 0 1-63.7 22 104.41 104.41 0 0 1-12.21-.74 145.21 145.21 0 0 0 78.62 23"/></symbol></svg>