<svg style="position:absolute" width="0" height="0"><symbol viewBox="0 0 23.5 22.6" id="academia" xmlns="http://www.w3.org/2000/svg"><path d="M6.7 22.6v-1.2c-1.8-.2-2.9-.4-2.1-2.4.1-.2.6-1.5 1.3-3.3h8.2l1.2 3c.2.5.3.9.3 1.2 0 1-.9 1.4-2.6 1.4v1.2h10.5v-1.2c-.9-.2-1.6-.4-1.9-1.2L13.5 0H7.7l1 2.5-6.8 17.7c-.3.9-1 1-1.9 1.2v1.2h6.7zM9.9 5.2l3.3 8.3H6.7c1.2-3.2 2.7-6.9 3.2-8.3z"/></symbol><symbol viewBox="0 0 120 42" id="cc-by-nc" xmlns="http://www.w3.org/2000/svg"><g transform="matrix(.99378 0 0 .9937 -177.694 -148.877)"><path d="M182.235 150.264l114.064.203c1.594 0 3.018-.237 3.018 3.18l-.14 37.567h-119.82v-37.706c0-1.685.163-3.244 2.878-3.244z" fill="#aab2ab"/><g transform="translate(50.125 143.214) scale(.87292)"><path d="M187.21 30.094c.005 8.68-7.028 15.722-15.709 15.727-8.68.005-15.722-7.027-15.727-15.708v-.019c-.005-8.68 7.028-15.722 15.708-15.727 8.682-.005 15.722 7.028 15.727 15.708v.02z" fill="#fff"/><path d="M184.269 17.292c3.485 3.486 5.228 7.754 5.228 12.802 0 5.05-1.713 9.272-5.138 12.668-3.635 3.576-7.932 5.364-12.89 5.364-4.897 0-9.12-1.773-12.665-5.32-3.545-3.545-5.318-7.783-5.318-12.712 0-4.928 1.773-9.196 5.318-12.802 3.456-3.487 7.678-5.23 12.665-5.23 5.049 0 9.314 1.743 12.8 5.23zm-23.118 2.344c-2.947 2.977-4.42 6.464-4.42 10.463 0 3.998 1.459 7.455 4.375 10.371 2.916 2.916 6.388 4.374 10.417 4.374 4.028 0 7.53-1.472 10.506-4.419 2.826-2.736 4.24-6.177 4.24-10.326 0-4.118-1.437-7.613-4.308-10.484-2.87-2.871-6.35-4.307-10.438-4.307-4.089 0-7.547 1.443-10.372 4.328zm7.754 8.704c-.45-.982-1.124-1.473-2.023-1.473-1.589 0-2.383 1.07-2.383 3.209 0 2.14.794 3.209 2.383 3.209 1.05 0 1.8-.52 2.249-1.565l2.203 1.173c-1.05 1.866-2.626 2.799-4.726 2.799-1.62 0-2.918-.497-3.892-1.49-.976-.993-1.463-2.362-1.463-4.108 0-1.715.503-3.077 1.508-4.085s2.257-1.512 3.758-1.512c2.22 0 3.81.874 4.77 2.622l-2.384 1.221zm10.364 0c-.451-.982-1.112-1.473-1.983-1.473-1.62 0-2.432 1.07-2.432 3.209 0 2.14.811 3.209 2.432 3.209 1.051 0 1.788-.52 2.208-1.565l2.252 1.173c-1.049 1.866-2.622 2.799-4.718 2.799-1.618 0-2.913-.497-3.887-1.49-.972-.993-1.459-2.362-1.459-4.108 0-1.715.495-3.077 1.483-4.085.988-1.008 2.245-1.512 3.773-1.512 2.217 0 3.804.874 4.762 2.622l-2.431 1.221z"/></g><path d="M297.296 149.822H181.067a2.263 2.263 0 0 0-2.26 2.26v39.497c0 .281.228.51.51.51h119.73a.51.51 0 0 0 .51-.51v-39.496a2.263 2.263 0 0 0-2.26-2.26zm-116.229 1.02h116.23c.683 0 1.239.557 1.239 1.24v27.382h-83.074c-3.045 5.506-8.911 9.244-15.644 9.244-6.735 0-12.6-3.735-15.643-9.244h-4.347v-27.381c0-.684.556-1.24 1.24-1.24z"/><g fill="#fff"><path d="M239.178 182.777c.318 0 .608.029.87.084.261.056.486.148.673.276.187.127.332.297.435.508.102.211.154.472.154.784 0 .336-.076.615-.23.839-.152.224-.378.407-.677.55.412.119.72.326.923.621.203.296.304.653.304 1.07 0 .336-.065.627-.196.873-.13.245-.308.446-.528.601a2.327 2.327 0 0 1-.758.346 3.402 3.402 0 0 1-.875.112h-3.236v-6.664h3.141zm-.187 2.696c.261 0 .477-.063.645-.187.168-.124.252-.325.252-.604a.773.773 0 0 0-.084-.382.63.63 0 0 0-.224-.234.944.944 0 0 0-.323-.116 2.17 2.17 0 0 0-.378-.032h-1.374v1.555h1.486zm.086 2.828c.143 0 .28-.014.411-.042a1.04 1.04 0 0 0 .346-.14.709.709 0 0 0 .239-.266.907.907 0 0 0 .089-.43c0-.341-.097-.585-.29-.732-.194-.145-.45-.218-.767-.218h-1.6v1.828h1.572zM241.89 182.777h1.643l1.56 2.632 1.551-2.632h1.634l-2.474 4.107v2.557h-1.469v-2.594l-2.446-4.07z"/></g><g fill="#fff"><path d="M265.78 182.777l2.785 4.471h.016v-4.47h1.375v6.663h-1.466l-2.774-4.462h-.018v4.462h-1.375v-6.664h1.458zM275.519 184.553a1.502 1.502 0 0 0-.77-.616 1.514 1.514 0 0 0-.518-.09c-.33 0-.61.064-.84.192a1.57 1.57 0 0 0-.56.513 2.247 2.247 0 0 0-.314.732 3.636 3.636 0 0 0 0 1.665c.066.265.17.503.314.714.142.212.329.38.56.509.23.128.51.191.84.191.447 0 .798-.136 1.05-.41.252-.274.406-.636.462-1.084h1.419a3.391 3.391 0 0 1-.29 1.13 2.612 2.612 0 0 1-1.513 1.403 3.268 3.268 0 0 1-1.128.188c-.51 0-.97-.089-1.378-.267a2.958 2.958 0 0 1-1.032-.732 3.237 3.237 0 0 1-.646-1.098 4.03 4.03 0 0 1-.224-1.36c0-.497.075-.96.224-1.386.15-.427.365-.799.646-1.116.28-.318.625-.567 1.032-.747.408-.18.867-.27 1.378-.27.367 0 .714.052 1.041.158.326.106.62.26.877.463.259.202.472.453.64.752.168.3.273.642.317 1.028h-1.419a1.19 1.19 0 0 0-.168-.462z"/></g><g transform="translate(457.938 166.153) scale(1.14682)"><path d="M-154.145-1.094a8.74 8.74 0 1 1-17.479.012v-.012a8.74 8.74 0 1 1 17.479 0z" fill="#fff"/><path d="M-162.897-11.27c2.852 0 5.263.984 7.233 2.95 1.97 1.968 2.955 4.377 2.955 7.226 0 2.848-.968 5.231-2.904 7.148-2.055 2.018-4.483 3.026-7.284 3.026-2.768 0-5.154-1-7.157-3.001-2.004-2-3.005-4.392-3.005-7.173 0-2.782 1.001-5.19 3.005-7.225 1.952-1.967 4.338-2.95 7.157-2.95zm-7.873 7.442a8.152 8.152 0 0 0-.455 2.734c0 2.255.822 4.205 2.47 5.85 1.646 1.644 3.607 2.467 5.883 2.467s4.253-.83 5.934-2.493a7.826 7.826 0 0 0 1.39-1.78l-3.836-1.707c-.26 1.29-1.409 2.162-2.8 2.264v1.569h-1.168v-1.57c-1.142-.012-2.245-.479-3.088-1.217l1.4-1.413c.676.635 1.351.92 2.272.92.597 0 1.259-.234 1.259-1.011a.76.76 0 0 0-.275-.611l-.97-.433-1.208-.537-1.611-.718-5.197-2.314zm7.898-5.61c-2.309 0-4.261.813-5.857 2.442a9.447 9.447 0 0 0-1.135 1.374l3.891 1.732c.351-1.079 1.376-1.734 2.621-1.806v-1.569h1.168v1.569c.805.039 1.687.26 2.557.933l-1.337 1.374c-.493-.35-1.116-.596-1.739-.596-.506 0-1.22.155-1.22.79 0 .097.032.183.092.258l1.3.58.881.392c.563.252 1.101.49 1.634.728l5.214 2.32a8.847 8.847 0 0 0 .258-2.177c0-2.325-.814-4.29-2.444-5.902-1.614-1.629-3.575-2.442-5.884-2.442z"/></g><circle cx="242.562" cy="165.136" r="10.806" fill="#fff"/><path d="M245.69 162.01a.754.754 0 0 0-.754-.755h-4.772a.754.754 0 0 0-.754.754v4.773h1.33v5.652h3.618v-5.652h1.332v-4.773z"/><circle cx="242.55" cy="158.995" r="1.632"/><path clip-rule="evenodd" d="M242.535 153.23c-3.232 0-5.969 1.127-8.208 3.383-2.298 2.334-3.446 5.096-3.446 8.285s1.148 5.932 3.446 8.227c2.298 2.294 5.034 3.441 8.208 3.441 3.213 0 5.998-1.156 8.353-3.47 2.22-2.198 3.33-4.93 3.33-8.198 0-3.268-1.129-6.029-3.387-8.285-2.26-2.256-5.025-3.384-8.296-3.384zm.029 2.1c2.648 0 4.897.933 6.747 2.8 1.87 1.848 2.805 4.103 2.805 6.768 0 2.684-.915 4.91-2.746 6.68-1.928 1.906-4.197 2.859-6.806 2.859-2.61 0-4.858-.943-6.747-2.83-1.89-1.886-2.833-4.123-2.833-6.709 0-2.587.954-4.843 2.862-6.768 1.83-1.867 4.07-2.8 6.718-2.8z" fill-rule="evenodd"/></g></symbol><symbol viewBox="0 0 24 24" fill="none" stroke="currentColor" stroke-width="2" stroke-linecap="round" stroke-linejoin="round" class="cfeather cfeather-external-link" id="external-link" xmlns="http://www.w3.org/2000/svg"><path d="M18 13v6a2 2 0 0 1-2 2H5a2 2 0 0 1-2-2V8a2 2 0 0 1 2-2h6M15 3h6v6M10 14L21 3"/></symbol><symbol viewBox="0 0 300 300.00223" id="facebook" xmlns="http://www.w3.org/2000/svg"><defs><clipPath id="da"><path d="M0 500h1024V0H0v500z"/></clipPath></defs><g clip-path="url(#da)" transform="matrix(1.11655 0 0 -1.11655 -136.954 433.606)"><path d="M375.716 120.553c8.134 0 14.73 6.596 14.73 14.73v237.434c0 8.137-6.596 14.73-14.73 14.73H138.283c-8.137 0-14.73-6.593-14.73-14.73V135.283c0-8.134 6.593-14.73 14.73-14.73h237.433z" fill="#3b5998"/><path d="M307.705 120.553v103.355h34.693l5.194 40.28h-39.887v25.717c0 11.662 3.238 19.609 19.962 19.609l21.33.01v36.026c-3.69.49-16.351 1.587-31.081 1.587-30.753 0-51.806-18.771-51.806-53.244v-29.705h-34.781v-40.28h34.78V120.553h41.596z" fill="#fff"/></g></symbol><symbol viewBox="0 0 85 87" id="ghost" xmlns="http://www.w3.org/2000/svg"><title>Slice 1</title><g fill="#738a94" fill-rule="evenodd" opacity=".6"><rect x=".209" y="69.017" width="33.643" height="17.014" rx="4"/><rect x="50.672" y="69.017" width="33.622" height="17.014" rx="4"/><rect x=".184" y="34.99" width="84.121" height="17.014" rx="4"/><rect x=".209" y=".964" width="50.469" height="17.013" rx="4"/><rect x="67.494" y=".964" width="16.821" height="17.013" rx="4"/></g></symbol><symbol viewBox="0 0 32 32" id="goodreads" xmlns="http://www.w3.org/2000/svg"><path d="M16 31.625C7.385 31.625.375 24.615.375 16 .375 7.384 7.385.375 16 .375S31.625 7.384 31.625 16c0 8.615-7.01 15.625-15.625 15.625z" fill="#FFF"/><path d="M16 .75C24.409.75 31.25 7.591 31.25 16S24.409 31.25 16 31.25.75 24.409.75 16 7.591.75 16 .75M16 0C7.163 0 0 7.163 0 16c0 8.836 7.163 16 16 16s16-7.164 16-16c0-8.837-7.163-16-16-16z" fill="#E5E5E5"/><g><path d="M15.947 19.682c2.127-.016 3.64-1.001 4.537-2.955h.047v2.98c0 .222-.016.566-.047 1.034-.064.484-.235 1.006-.512 1.564-.278.525-.727.973-1.345 1.342-.612.402-1.465.611-2.561.628-1.056 0-1.949-.255-2.679-.764-.747-.501-1.183-1.314-1.31-2.438h-.929c.095 1.461.599 2.504 1.512 3.127.889.599 2.016.899 3.382.899 1.349 0 2.402-.234 3.156-.702.746-.451 1.281-1.014 1.608-1.687.325-.673.52-1.314.583-1.921.048-.607.072-1.042.072-1.305V7.196h-.929v2.709h-.047c-.357-.993-.949-1.744-1.775-2.253a5.26 5.26 0 0 0-2.762-.751c-1.755.033-3.089.661-4.001 1.884-.937 1.215-1.405 2.713-1.405 4.494 0 1.831.444 3.345 1.333 4.543.897 1.224 2.254 1.843 4.072 1.86zM12.589 9.45c.73-1.108 1.849-1.683 3.358-1.724 1.548.041 2.695.599 3.441 1.675s1.119 2.368 1.119 3.879-.373 2.795-1.119 3.854c-.747 1.125-1.893 1.699-3.441 1.724-1.461-.025-2.573-.583-3.335-1.674-.77-1.059-1.155-2.36-1.155-3.903 0-1.447.378-2.723 1.132-3.831z" fill="#333"/></g></symbol><symbol viewBox="0 0 207.28 192" id="linkedin" xmlns="http://www.w3.org/2000/svg"><g transform="matrix(.13333 0 0 -.13333 0 192)"><path d="M1333.44 1440H106.289C47.649 1440 0 1393.52 0 1336.23V103.891C0 46.551 47.648 0 106.289 0H1333.44c58.75 0 106.6 46.55 106.6 103.891V1336.23c0 57.29-47.85 103.77-106.6 103.77" fill="#0977b6"/><path d="M320.344 1241.74c68.277 0 123.777-55.49 123.777-123.79 0-68.37-55.5-123.864-123.777-123.864-68.457 0-123.86 55.494-123.86 123.864 0 68.3 55.403 123.79 123.86 123.79M213.496 900.145H427.09V212.93H213.496v687.215M561.063 900.145h204.843v-93.907h2.864c28.511 54.035 98.187 110.992 202.093 110.992 216.287 0 256.217-142.335 256.217-327.343V212.93h-213.44v334.203c0 79.687-1.47 182.191-110.988 182.191-111.125 0-128.187-86.801-128.187-176.429V212.93H561.063v687.215" fill="#fff"/><path d="M1475.12 249.102h11.61v-36.18h6.31v36.18h11.58v6.308h-29.5v-6.308M1545.65 255.41l-12.39-31.191-12.39 31.191h-8.98v-42.488h6.28v32.328l13-32.328h4.19l12.99 32.328v-32.328h6.28v42.488h-8.98" fill="#231f20"/></g></symbol><symbol viewBox="0 0 24 24" fill="none" stroke="currentColor" stroke-width="2" stroke-linecap="round" stroke-linejoin="round" class="hfeather hfeather-mail" id="mail" xmlns="http://www.w3.org/2000/svg"><path d="M4 4h16c1.1 0 2 .9 2 2v12c0 1.1-.9 2-2 2H4c-1.1 0-2-.9-2-2V6c0-1.1.9-2 2-2z"/><path d="M22 6l-10 7L2 6"/></symbol><symbol viewBox="0 0 16 16" id="octicon" xmlns="http://www.w3.org/2000/svg"><path fill-rule="evenodd" d="M8 0C3.58 0 0 3.58 0 8c0 3.54 2.29 6.53 5.47 7.59.4.07.55-.17.55-.38 0-.19-.01-.82-.01-1.49-2.01.37-2.53-.49-2.69-.94-.09-.23-.48-.94-.82-1.13-.28-.15-.68-.52-.01-.53.63-.01 1.08.58 1.23.82.72 1.21 1.87.87 2.33.66.07-.52.28-.87.51-1.07-1.78-.2-3.64-.89-3.64-3.95 0-.87.31-1.59.82-2.15-.08-.2-.36-1.02.08-2.12 0 0 .67-.21 2.2.82.64-.18 1.32-.27 2-.27.68 0 1.36.09 2 .27 1.53-1.04 2.2-.82 2.2-.82.44 1.1.16 1.92.08 2.12.51.56.82 1.27.82 2.15 0 3.07-1.87 3.75-3.65 3.95.29.25.54.73.54 1.48 0 1.07-.01 1.93-.01 2.2 0 .21.15.46.55.38A8.013 8.013 0 0 0 16 8c0-4.42-3.58-8-8-8z"/></symbol><symbol id="orcid" viewBox="0 0 256 256" xmlns="http://www.w3.org/2000/svg"><style>.jst0{fill:#a6ce39}.jst1{fill:#fff}</style><path class="jst0" d="M256 128c0 70.7-57.3 128-128 128S0 198.7 0 128 57.3 0 128 0s128 57.3 128 128z"/><path class="jst1" d="M86.3 186.2H70.9V79.1h15.4v107.1zM108.9 79.1h41.6c39.6 0 57 28.3 57 53.6 0 27.5-21.5 53.6-56.8 53.6h-41.8V79.1zm15.4 93.3h24.5c34.9 0 42.9-26.5 42.9-39.7C191.7 111.2 178 93 148 93h-23.7v79.4zM88.7 56.8c0 5.5-4.5 10.1-10.1 10.1s-10.1-4.6-10.1-10.1c0-5.6 4.5-10.1 10.1-10.1s10.1 4.6 10.1 10.1z"/></symbol><symbol viewBox="0 0 61 61" id="skype" xmlns="http://www.w3.org/2000/svg"><title>Shape</title><path d="M30.32 48.65c-10.09 0-14.7-5.14-14.7-8.91a3.27 3.27 0 0 1 3.45-3.27c4.32 0 3.19 6.48 11.25 6.48 4.12 0 6.54-2.48 6.54-4.81 0-1.4-.8-3-3.52-3.64l-9-2.27c-7.23-1.84-8.49-5.86-8.49-9.59 0-7.74 7.08-10.54 13.82-10.54 6.21 0 13.59 3.43 13.59 8.07 0 2-1.67 3.07-3.61 3.07-3.69 0-3.07-5.18-10.49-5.18-3.69 0-5.63 1.73-5.63 4.15 0 2.42 2.87 3.24 5.39 3.79l6.64 1.5c7.28 1.64 9.22 5.91 9.22 10 0 6.29-4.87 11.15-14.47 11.15m27.87-13.31a28.86 28.86 0 0 0 .43-5A28.42 28.42 0 0 0 25.27 2.23 16.72 16.72 0 0 0 16.89 0 17 17 0 0 0 2.22 25.41a28.44 28.44 0 0 0 32.92 33.1 16.71 16.71 0 0 0 8.37 2.23 17 17 0 0 0 14.67-25.4" fill-rule="nonzero" fill="#0078D7"/></symbol><symbol id="twitter" viewBox="0 0 400 400" xmlns="http://www.w3.org/2000/svg"><defs><style>.lcls-1{fill:none}.lcls-2{fill:#1da1f2}</style></defs><title>Twitter_Logo_Blue</title><path class="lcls-1" d="M0 0h400v400H0z"/><path class="lcls-2" d="M153.62 301.59c94.34 0 145.94-78.16 145.94-145.94 0-2.22 0-4.43-.15-6.63A104.36 104.36 0 0 0 325 122.47a102.38 102.38 0 0 1-29.46 8.07 51.47 51.47 0 0 0 22.55-28.37 102.79 102.79 0 0 1-32.57 12.45 51.34 51.34 0 0 0-87.41 46.78A145.62 145.62 0 0 1 92.4 107.81a51.33 51.33 0 0 0 15.88 68.47A50.91 50.91 0 0 1 85 169.86v.65a51.31 51.31 0 0 0 41.15 50.28 51.21 51.21 0 0 1-23.16.88 51.35 51.35 0 0 0 47.92 35.62 102.92 102.92 0 0 1-63.7 22 104.41 104.41 0 0 1-12.21-.74 145.21 145.21 0 0 0 78.62 23"/></symbol></svg>