<?xml version="1.0" encoding="utf-8"?><svg style="display: none;" xmlns="http://www.w3.org/2000/svg" xmlns:xlink="http://www.w3.org/1999/xlink"><symbol viewBox="0 0 23.5 22.6" id="academia" xmlns="http://www.w3.org/2000/svg"><path d="M6.7 22.6v-1.2c-1.8-.2-2.9-.4-2.1-2.4.1-.2.6-1.5 1.3-3.3h8.2l1.2 3c.2.5.3.9.3 1.2 0 1-.9 1.4-2.6 1.4v1.2h10.5v-1.2c-.9-.2-1.6-.4-1.9-1.2L13.5 0H7.7l1 2.5-6.8 17.7c-.3.9-1 1-1.9 1.2v1.2h6.7zM9.9 5.2l3.3 8.3H6.7c1.2-3.2 2.7-6.9 3.2-8.3z"/></symbol><symbol viewBox="0 0 120 42" id="cc-by-nc" xmlns="http://www.w3.org/2000/svg"><g transform="matrix(.99378 0 0 .9937 -177.694 -148.877)"><path d="M182.235 150.264l114.064.203c1.594 0 3.018-.237 3.018 3.18l-.14 37.567h-119.82v-37.706c0-1.685.163-3.244 2.878-3.244z" fill="#aab2ab"/><g transform="translate(50.125 143.214) scale(.87292)"><path d="M187.21 30.094c.005 8.68-7.028 15.722-15.709 15.727-8.68.005-15.722-7.027-15.727-15.708v-.019c-.005-8.68 7.028-15.722 15.708-15.727 8.682-.005 15.722 7.028 15.727 15.708v.02z" fill="#fff"/><path d="M184.269 17.292c3.485 3.486 5.228 7.754 5.228 12.802 0 5.05-1.713 9.272-5.138 12.668-3.635 3.576-7.932 5.364-12.89 5.364-4.897 0-9.12-1.773-12.665-5.32-3.545-3.545-5.318-7.783-5.318-12.712 0-4.928 1.773-9.196 5.318-12.802 3.456-3.487 7.678-5.23 12.665-5.23 5.049 0 9.314 1.743 12.8 5.23zm-23.118 2.344c-2.947 2.977-4.42 6.464-4.42 10.463 0 3.998 1.459 7.455 4.375 10.371 2.916 2.916 6.388 4.374 10.417 4.374 4.028 0 7.53-1.472 10.506-4.419 2.826-2.736 4.24-6.177 4.24-10.326 0-4.118-1.437-7.613-4.308-10.484-2.87-2.871-6.35-4.307-10.438-4.307-4.089 0-7.547 1.443-10.372 4.328zm7.754 8.704c-.45-.982-1.124-1.473-2.023-1.473-1.589 0-2.383 1.07-2.383 3.209 0 2.14.794 3.209 2.383 3.209 1.05 0 1.8-.52 2.249-1.565l2.203 1.173c-1.05 1.866-2.626 2.799-4.726 2.799-1.62 0-2.918-.497-3.892-1.49-.976-.993-1.463-2.362-1.463-4.108 0-1.715.503-3.077 1.508-4.085s2.257-1.512 3.758-1.512c2.22 0 3.81.874 4.77 2.622l-2.384 1.221zm10.364 0c-.451-.982-1.112-1.473-1.983-1.473-1.62 0-2.432 1.07-2.432 3.209 0 2.14.811 3.209 2.432 3.209 1.051 0 1.788-.52 2.208-1.565l2.252 1.173c-1.049 1.866-2.622 2.799-4.718 2.799-1.618 0-2.913-.497-3.887-1.49-.972-.993-1.459-2.362-1.459-4.108 0-1.715.495-3.077 1.483-4.085.988-1.008 2.245-1.512 3.773-1.512 2.217 0 3.804.874 4.762 2.622l-2.431 1.221z"/></g><path d="M297.296 149.822H181.067a2.263 2.263 0 0 0-2.26 2.26v39.497c0 .281.228.51.51.51h119.73a.51.51 0 0 0 .51-.51v-39.496a2.263 2.263 0 0 0-2.26-2.26zm-116.229 1.02h116.23c.683 0 1.239.557 1.239 1.24v27.382h-83.074c-3.045 5.506-8.911 9.244-15.644 9.244-6.735 0-12.6-3.735-15.643-9.244h-4.347v-27.381c0-.684.556-1.24 1.24-1.24z"/><g fill="#fff"><path d="M239.178 182.777c.318 0 .608.029.87.084.261.056.486.148.673.276.187.127.332.297.435.508.102.211.154.472.154.784 0 .336-.076.615-.23.839-.152.224-.378.407-.677.55.412.119.72.326.923.621.203.296.304.653.304 1.07 0 .336-.065.627-.196.873-.13.245-.308.446-.528.601a2.327 2.327 0 0 1-.758.346 3.402 3.402 0 0 1-.875.112h-3.236v-6.664h3.141zm-.187 2.696c.261 0 .477-.063.645-.187.168-.124.252-.325.252-.604a.773.773 0 0 0-.084-.382.63.63 0 0 0-.224-.234.944.944 0 0 0-.323-.116 2.17 2.17 0 0 0-.378-.032h-1.374v1.555h1.486zm.086 2.828c.143 0 .28-.014.411-.042a1.04 1.04 0 0 0 .346-.14.709.709 0 0 0 .239-.266.907.907 0 0 0 .089-.43c0-.341-.097-.585-.29-.732-.194-.145-.45-.218-.767-.218h-1.6v1.828h1.572zM241.89 182.777h1.643l1.56 2.632 1.551-2.632h1.634l-2.474 4.107v2.557h-1.469v-2.594l-2.446-4.07z"/></g><g fill="#fff"><path d="M265.78 182.777l2.785 4.471h.016v-4.47h1.375v6.663h-1.466l-2.774-4.462h-.018v4.462h-1.375v-6.664h1.458zM275.519 184.553a1.502 1.502 0 0 0-.77-.616 1.514 1.514 0 0 0-.518-.09c-.33 0-.61.064-.84.192a1.57 1.57 0 0 0-.56.513 2.247 2.247 0 0 0-.314.732 3.636 3.636 0 0 0 0 1.665c.066.265.17.503.314.714.142.212.329.38.56.509.23.128.51.191.84.191.447 0 .798-.136 1.05-.41.252-.274.406-.636.462-1.084h1.419a3.391 3.391 0 0 1-.29 1.13 2.612 2.612 0 0 1-1.513 1.403 3.268 3.268 0 0 1-1.128.188c-.51 0-.97-.089-1.378-.267a2.958 2.958 0 0 1-1.032-.732 3.237 3.237 0 0 1-.646-1.098 4.03 4.03 0 0 1-.224-1.36c0-.497.075-.96.224-1.386.15-.427.365-.799.646-1.116.28-.318.625-.567 1.032-.747.408-.18.867-.27 1.378-.27.367 0 .714.052 1.041.158.326.106.62.26.877.463.259.202.472.453.64.752.168.3.273.642.317 1.028h-1.419a1.19 1.19 0 0 0-.168-.462z"/></g><g transform="translate(457.938 166.153) scale(1.14682)"><path d="M-154.145-1.094a8.74 8.74 0 1 1-17.479.012v-.012a8.74 8.74 0 1 1 17.479 0z" fill="#fff"/><path d="M-162.897-11.27c2.852 0 5.263.984 7.233 2.95 1.97 1.968 2.955 4.377 2.955 7.226 0 2.848-.968 5.231-2.904 7.148-2.055 2.018-4.483 3.026-7.284 3.026-2.768 0-5.154-1-7.157-3.001-2.004-2-3.005-4.392-3.005-7.173 0-2.782 1.001-5.19 3.005-7.225 1.952-1.967 4.338-2.95 7.157-2.95zm-7.873 7.442a8.152 8.152 0 0 0-.455 2.734c0 2.255.822 4.205 2.47 5.85 1.646 1.644 3.607 2.467 5.883 2.467s4.253-.83 5.934-2.493a7.826 7.826 0 0 0 1.39-1.78l-3.836-1.707c-.26 1.29-1.409 2.162-2.8 2.264v1.569h-1.168v-1.57c-1.142-.012-2.245-.479-3.088-1.217l1.4-1.413c.676.635 1.351.92 2.272.92.597 0 1.259-.234 1.259-1.011a.76.76 0 0 0-.275-.611l-.97-.433-1.208-.537-1.611-.718-5.197-2.314zm7.898-5.61c-2.309 0-4.261.813-5.857 2.442a9.447 9.447 0 0 0-1.135 1.374l3.891 1.732c.351-1.079 1.376-1.734 2.621-1.806v-1.569h1.168v1.569c.805.039 1.687.26 2.557.933l-1.337 1.374c-.493-.35-1.116-.596-1.739-.596-.506 0-1.22.155-1.22.79 0 .097.032.183.092.258l1.3.58.881.392c.563.252 1.101.49 1.634.728l5.214 2.32a8.847 8.847 0 0 0 .258-2.177c0-2.325-.814-4.29-2.444-5.902-1.614-1.629-3.575-2.442-5.884-2.442z"/></g><circle cx="242.562" cy="165.136" r="10.806" fill="#fff"/><path d="M245.69 162.01a.754.754 0 0 0-.754-.755h-4.772a.754.754 0 0 0-.754.754v4.773h1.33v5.652h3.618v-5.652h1.332v-4.773z"/><circle cx="242.55" cy="158.995" r="1.632"/><path clip-rule="evenodd" d="M242.535 153.23c-3.232 0-5.969 1.127-8.208 3.383-2.298 2.334-3.446 5.096-3.446 8.285s1.148 5.932 3.446 8.227c2.298 2.294 5.034 3.441 8.208 3.441 3.213 0 5.998-1.156 8.353-3.47 2.22-2.198 3.33-4.93 3.33-8.198 0-3.268-1.129-6.029-3.387-8.285-2.26-2.256-5.025-3.384-8.296-3.384zm.029 2.1c2.648 0 4.897.933 6.747 2.8 1.87 1.848 2.805 4.103 2.805 6.768 0 2.684-.915 4.91-2.746 6.68-1.928 1.906-4.197 2.859-6.806 2.859-2.61 0-4.858-.943-6.747-2.83-1.89-1.886-2.833-4.123-2.833-6.709 0-2.587.954-4.843 2.862-6.768 1.83-1.867 4.07-2.8 6.718-2.8z" fill-rule="evenodd"/></g></symbol><symbol viewBox="0 0 16 16" id="github" xmlns="http://www.w3.org/2000/svg"><path fill-rule="evenodd" d="M8 0C3.58 0 0 3.58 0 8c0 3.54 2.29 6.53 5.47 7.59.4.07.55-.17.55-.38 0-.19-.01-.82-.01-1.49-2.01.37-2.53-.49-2.69-.94-.09-.23-.48-.94-.82-1.13-.28-.15-.68-.52-.01-.53.63-.01 1.08.58 1.23.82.72 1.21 1.87.87 2.33.66.07-.52.28-.87.51-1.07-1.78-.2-3.64-.89-3.64-3.95 0-.87.31-1.59.82-2.15-.08-.2-.36-1.02.08-2.12 0 0 .67-.21 2.2.82.64-.18 1.32-.27 2-.27.68 0 1.36.09 2 .27 1.53-1.04 2.2-.82 2.2-.82.44 1.1.16 1.92.08 2.12.51.56.82 1.27.82 2.15 0 3.07-1.87 3.75-3.65 3.95.29.25.54.73.54 1.48 0 1.07-.01 1.93-.01 2.2 0 .21.15.46.55.38A8.013 8.013 0 0 0 16 8c0-4.42-3.58-8-8-8z"/></symbol></svg>